<?xml version="1.0" encoding="UTF-8"?>
<svg width="82px" height="16px" viewBox="0 0 82 16" version="1.1" xmlns="http://www.w3.org/2000/svg" xmlns:xlink="http://www.w3.org/1999/xlink">
    <!-- Generator: Sketch 47.1 (45422) - http://www.bohemiancoding.com/sketch -->
    <title>logo</title>
    <desc>Created with Sketch.</desc>
    <defs></defs>
    <g id="Page-1" stroke="none" stroke-width="1" fill="none" fill-rule="evenodd">
        <g id="logo" fill="#fff">
            <path d="M0,15.832754 L0,0 L2.26817543,0 L2.26817543,7.22702957 L2.31264946,7.22702957 L5.62596456,0 L7.89413999,0 L4.80319504,6.33754901 L8.47230235,15.832754 L6.07070484,15.832754 L3.49121121,8.80585757 L2.26817543,11.09627 L2.26817543,15.832754 L0,15.832754 Z M14.7613342,10.2957375 L13.6494835,4.55858788 L13.6050095,4.55858788 L12.4931588,10.2957375 L14.7613342,10.2957375 Z M9.15760668,15.832754 L12.6932919,0 L14.5834381,0 L18.1191233,15.832754 L15.8509479,15.832754 L15.1838375,12.4304909 L12.0928925,12.4304909 L11.4257821,15.832754 L9.15760668,15.832754 Z M19.9385154,15.832754 L19.9385154,0 L22.1177428,0 L25.0307916,8.3833543 L25.0752656,8.3833543 L27.9660775,0 L30.1675419,0 L30.1675419,15.832754 L27.8993664,15.832754 L27.8993664,6.20412692 L27.8548924,6.20412692 L25.608954,13.0086532 L24.4748663,13.0086532 L22.2511649,6.20412692 L22.2066908,6.20412692 L22.2066908,15.832754 L19.9385154,15.832754 Z M33.0765476,15.832754 L33.0765476,0 L35.344723,0 L35.344723,15.832754 L33.0765476,15.832754 Z M38.1647807,15.832754 L38.1647807,0 L40.3440081,0 L43.7685082,9.53967903 L43.8129823,9.53967903 L43.8129823,0 L46.0811577,0 L46.0811577,15.832754 L43.9464044,15.832754 L40.4774302,6.31531199 L40.4329561,6.31531199 L40.4329561,15.832754 L38.1647807,15.832754 Z M50.3243843,15.832754 L50.3243843,2.13475335 L47.7004166,2.13475335 L47.7004166,0 L55.2165274,0 L55.2165274,2.13475335 L52.5925597,2.13475335 L52.5925597,15.832754 L50.3243843,15.832754 Z M56.9914454,15.832754 L56.9914454,0 L59.2596208,0 L59.2596208,15.832754 L56.9914454,15.832754 Z M62.1686266,15.832754 L62.1686266,0 L64.3478539,0 L67.2609028,8.3833543 L67.3053768,8.3833543 L70.1961886,0 L72.397653,0 L72.397653,15.832754 L70.1294776,15.832754 L70.1294776,6.20412692 L70.0850036,6.20412692 L67.8390652,13.0086532 L66.7049774,13.0086532 L64.481276,6.20412692 L64.436802,6.20412692 L64.436802,15.832754 L62.1686266,15.832754 Z M75.2399477,15.832754 L75.2399477,0 L82,0 L82,2.13475335 L77.5081232,2.13475335 L77.5081232,6.78228929 L81.4218376,6.78228929 L81.4218376,8.91704264 L77.5081232,8.91704264 L77.5081232,13.5645786 L82,13.5645786 L82,15.832754 L75.2399477,15.832754 Z" id="KaminTime"></path>
        </g>
    </g>
</svg>