<?xml version="1.0" encoding="UTF-8"?>
<svg width="94px" height="16px" viewBox="0 0 94 16" version="1.1" xmlns="http://www.w3.org/2000/svg" xmlns:xlink="http://www.w3.org/1999/xlink">
    <!-- Generator: Sketch 48 (47235) - http://www.bohemiancoding.com/sketch -->
    <title>logo</title>
    <desc>Created with Sketch.</desc>
    <defs></defs>
    <g id="KaminTime-32" stroke="none" stroke-width="1" fill="none" fill-rule="evenodd" transform="translate(-143.000000, -50.000000)">
        <g id="logo" transform="translate(143.000000, 50.000000)" fill="#fff">
            <path d="M7.18533333,15 C7.09466621,14.8866661 6.9001126,14.4427817 6.60166667,13.6683333 C6.30322073,12.893885 5.95566865,12.0174493 5.559,11.039 C5.16233135,10.0605507 4.8128904,9.31822475 4.51066667,8.812 L4.51066667,15 L0.759333333,15 L0.759333333,1.71733333 L4.51066667,1.71733333 L4.51066667,8.07533333 L7.33266667,1.71733333 L11.1066667,1.71733333 L7.72933333,7.95066667 C7.94844554,8.10177853 8.23933152,8.51355219 8.602,9.186 C8.96466848,9.85844781 9.30466508,10.5648852 9.622,11.3053333 C9.93933492,12.0457815 10.2679983,12.7881074 10.608,13.5323333 C10.9480017,14.2765593 11.1973325,14.7657766 11.356,15 L7.18533333,15 Z M16.9546667,13.9913333 L16.8413333,14.116 C16.7657774,14.2066671 16.6505563,14.3124438 16.4956667,14.4333333 C16.340777,14.5542228 16.1632232,14.6751105 15.963,14.796 C15.7627768,14.9168895 15.5191125,15.0207773 15.232,15.1076667 C14.9448875,15.194556 14.6502237,15.238 14.348,15.238 C12.3079898,15.238 11.288,14.2293434 11.288,12.212 C11.288,11.8191091 11.3597771,11.458335 11.5033333,11.1296667 C11.6468896,10.8009984 11.8319989,10.5233345 12.0586667,10.2966667 C12.2853345,10.0699989 12.5573317,9.86788978 12.8746667,9.69033333 C13.1920016,9.51277689 13.5112206,9.37300051 13.8323333,9.271 C14.1534461,9.16899949 14.4915538,9.08400034 14.8466667,9.016 C15.2017796,8.94799966 15.5191097,8.90266678 15.7986667,8.88 C16.0782236,8.85733322 16.3464432,8.846 16.6033333,8.846 L16.6033333,8.642 C16.6033333,8.18110881 16.4805568,7.85622317 16.235,7.66733333 C15.9894432,7.4784435 15.5946694,7.384 15.0506667,7.384 C14.5822199,7.384 14.0948914,7.43877723 13.5886667,7.54833333 C13.0824419,7.65788944 12.6857792,7.78822147 12.3986667,7.93933333 L11.6733333,6.398 C12.1871137,6.06555389 12.8557737,5.77277904 13.6793333,5.51966667 C14.502893,5.26655429 15.3415513,5.14 16.1953333,5.14 C16.9508927,5.14 17.5742198,5.21366593 18.0653333,5.361 C18.5564469,5.50833407 18.9549985,5.75766491 19.261,6.109 C19.5670015,6.46033509 19.7842216,6.90610841 19.9126667,7.44633333 C20.0411118,7.98655826 20.1053333,8.67221807 20.1053333,9.50333333 L20.1053333,14.116 L20.4226667,15 L17.3173333,15 L16.9546667,13.9913333 Z M16.0593333,13.2433333 C16.157556,13.2433333 16.2501107,13.2225558 16.337,13.181 C16.4238893,13.1394442 16.4899998,13.0978891 16.5353333,13.0563333 L16.6033333,12.994 L16.6033333,10.274 C16.1424421,10.274 15.7760014,10.4005543 15.504,10.6536667 C15.2319986,10.906779 15.096,11.2977751 15.096,11.8266667 C15.096,12.7711158 15.4171079,13.2433333 16.0593333,13.2433333 Z M25.2053333,15 L21.5446667,15 L21.5446667,7.66733333 L20.8646667,7.248 L20.8646667,6.03533333 L23.3013333,5.36666667 L25.228,5.36666667 L25.228,6.82866667 C25.265778,6.77577751 25.3205552,6.70588932 25.3923333,6.619 C25.4641115,6.53211068 25.5982212,6.39422317 25.7946667,6.20533333 C25.9911121,6.0164435 26.1932212,5.85022294 26.401,5.70666667 C26.6087788,5.56311039 26.8618874,5.43277836 27.1603333,5.31566667 C27.4587793,5.19855497 27.7553319,5.14 28.05,5.14 C28.8055593,5.14 29.3835536,5.28355412 29.784,5.57066667 C30.1844464,5.85777921 30.4677769,6.32621897 30.634,6.976 C30.8908902,6.53021999 31.285664,6.11277972 31.8183333,5.72366667 C32.3510027,5.33455361 32.9384412,5.14 33.5806667,5.14 C34.2908924,5.14 34.8443314,5.26277655 35.241,5.50833333 C35.6376687,5.75389012 35.9266658,6.17133039 36.108,6.76066667 C36.2893342,7.35000295 36.38,8.18110575 36.38,9.254 L36.38,15 L32.6966667,15 L32.6966667,8.92533333 C32.6966667,8.59288723 32.6173341,8.33222317 32.4586667,8.14333333 C32.2999992,7.9544435 32.0582238,7.86 31.7333333,7.86 C31.5142211,7.86 31.2157797,8.04133152 30.838,8.404 C30.8606668,8.76666848 30.872,9.15955344 30.872,9.58266667 L30.872,15 L27.132,15 L27.132,8.92533333 C27.1546668,8.21510756 26.8524476,7.86 26.2253333,7.86 C26.1799998,7.86 26.1365558,7.86377774 26.095,7.87133333 C26.0534442,7.87888893 26.0156668,7.88644441 25.9816667,7.894 C25.9476665,7.90155559 25.9098891,7.91477768 25.8683333,7.93366667 C25.8267776,7.95255565 25.790889,7.96766661 25.7606667,7.979 C25.7304443,7.99033339 25.6964446,8.00922209 25.6586667,8.03566667 C25.6208887,8.06211124 25.5906668,8.08288881 25.568,8.098 C25.5453332,8.11311119 25.5132224,8.1376665 25.4716667,8.17166667 C25.4301109,8.20566684 25.399889,8.23022215 25.381,8.24533333 C25.362111,8.26044452 25.3318891,8.28499983 25.2903333,8.319 C25.2487776,8.35300017 25.2204445,8.37755548 25.2053333,8.39266667 L25.2053333,15 Z M37.8193333,15 L37.8193333,7.66733333 L37.1393333,7.248 L37.1393333,6.03533333 L39.576,5.36666667 L41.4686667,5.36666667 L41.4686667,15 L37.8193333,15 Z M39.4626667,4.324 L37.604,2.454 L37.604,2.05733333 L39.4626667,0.198666667 L39.8933333,0.198666667 L41.8313333,2.05733333 L41.8313333,2.454 L39.8933333,4.324 L39.4626667,4.324 Z M46.7046667,15 L43.044,15 L43.044,7.66733333 L42.364,7.248 L42.364,6.03533333 L44.8006667,5.36666667 L46.7273333,5.36666667 L46.7273333,6.82866667 L46.8633333,6.65866667 C46.9540005,6.53777717 47.0881102,6.39422305 47.2656667,6.228 C47.4432231,6.06177695 47.6415545,5.89744526 47.8606667,5.735 C48.0797789,5.57255474 48.3423318,5.43277836 48.6483333,5.31566667 C48.9543349,5.19855497 49.2546652,5.14 49.5493333,5.14 C50.5844496,5.14 51.3154423,5.4233305 51.7423333,5.99 C52.1692244,6.5566695 52.3826667,7.50488224 52.3826667,8.83466667 L52.3826667,9.03866667 C52.3751111,9.12933379 52.3713333,9.20111085 52.3713333,9.254 L52.3713333,15 L48.6313333,15 L48.6313333,8.92533333 C48.6540001,8.21510756 48.3517809,7.86 47.7246667,7.86 C47.6793331,7.86 47.6358891,7.86377774 47.5943333,7.87133333 C47.5527776,7.87888893 47.5150002,7.88644441 47.481,7.894 C47.4469998,7.90155559 47.4092224,7.91477768 47.3676667,7.93366667 C47.3261109,7.95255565 47.2902224,7.96766661 47.26,7.979 C47.2297776,7.99033339 47.195778,8.00922209 47.158,8.03566667 C47.120222,8.06211124 47.0900001,8.08288881 47.0673333,8.098 C47.0446666,8.11311119 47.0125558,8.1376665 46.971,8.17166667 C46.9294442,8.20566684 46.8992223,8.23022215 46.8803333,8.24533333 C46.8614444,8.26044452 46.8312224,8.28499983 46.7896667,8.319 C46.7481109,8.35300017 46.7197779,8.37755548 46.7046667,8.39266667 L46.7046667,15 Z M55.7826667,15 L55.7826667,4.72066667 L53.1306667,4.72066667 L53.1306667,1.71733333 L62.2653333,1.71733333 L62.2653333,4.72066667 L59.6133333,4.72066667 L59.6133333,15 L55.7826667,15 Z M63.3873333,15 L63.3873333,7.66733333 L62.7073333,7.248 L62.7073333,6.03533333 L65.144,5.36666667 L67.0366667,5.36666667 L67.0366667,15 L63.3873333,15 Z M65.0306667,4.324 L63.172,2.454 L63.172,2.05733333 L65.0306667,0.198666667 L65.4613333,0.198666667 L67.3993333,2.05733333 L67.3993333,2.454 L65.4613333,4.324 L65.0306667,4.324 Z M72.2726667,15 L68.612,15 L68.612,7.66733333 L67.932,7.248 L67.932,6.03533333 L70.3686667,5.36666667 L72.2953333,5.36666667 L72.2953333,6.82866667 C72.3331113,6.77577751 72.3878885,6.70588932 72.4596667,6.619 C72.5314448,6.53211068 72.6655546,6.39422317 72.862,6.20533333 C73.0584454,6.0164435 73.2605545,5.85022294 73.4683333,5.70666667 C73.6761122,5.56311039 73.9292207,5.43277836 74.2276667,5.31566667 C74.5261126,5.19855497 74.8226652,5.14 75.1173333,5.14 C75.8728927,5.14 76.4508869,5.28355412 76.8513333,5.57066667 C77.2517798,5.85777921 77.5351103,6.32621897 77.7013333,6.976 C77.9582235,6.53021999 78.3529973,6.11277972 78.8856667,5.72366667 C79.418336,5.33455361 80.0057746,5.14 80.648,5.14 C81.3582258,5.14 81.9116647,5.26277655 82.3083333,5.50833333 C82.705002,5.75389012 82.9939991,6.17133039 83.1753333,6.76066667 C83.3566676,7.35000295 83.4473333,8.18110575 83.4473333,9.254 L83.4473333,15 L79.764,15 L79.764,8.92533333 C79.764,8.59288723 79.6846675,8.33222317 79.526,8.14333333 C79.3673325,7.9544435 79.1255572,7.86 78.8006667,7.86 C78.5815545,7.86 78.283113,8.04133152 77.9053333,8.404 C77.9280001,8.76666848 77.9393333,9.15955344 77.9393333,9.58266667 L77.9393333,15 L74.1993333,15 L74.1993333,8.92533333 C74.2220001,8.21510756 73.9197809,7.86 73.2926667,7.86 C73.2473331,7.86 73.2038891,7.86377774 73.1623333,7.87133333 C73.1207776,7.87888893 73.0830002,7.88644441 73.049,7.894 C73.0149998,7.90155559 72.9772224,7.91477768 72.9356667,7.93366667 C72.8941109,7.95255565 72.8582224,7.96766661 72.828,7.979 C72.7977776,7.99033339 72.763778,8.00922209 72.726,8.03566667 C72.688222,8.06211124 72.6580001,8.08288881 72.6353333,8.098 C72.6126666,8.11311119 72.5805558,8.1376665 72.539,8.17166667 C72.4974442,8.20566684 72.4672223,8.23022215 72.4483333,8.24533333 C72.4294444,8.26044452 72.3992224,8.28499983 72.3576667,8.319 C72.3161109,8.35300017 72.2877779,8.37755548 72.2726667,8.39266667 L72.2726667,15 Z M89.9753333,9.14066667 C89.9753333,8.18110631 89.9262227,7.50111311 89.828,7.10066667 C89.7297773,6.70022022 89.5484458,6.5 89.284,6.5 C89.0573322,6.5 88.8722229,6.53966627 88.7286667,6.619 C88.5851104,6.69833373 88.4793337,6.82299915 88.4113333,6.993 C88.343333,7.16300085 88.299889,7.33677689 88.281,7.51433333 C88.262111,7.69188978 88.2526667,7.91666531 88.2526667,8.18866667 L88.2526667,9.14066667 L89.9753333,9.14066667 Z M89.0686667,15.238 C88.2224402,15.238 87.4876698,15.1095568 86.8643333,14.8526667 C86.2409969,14.5957765 85.7498907,14.2368912 85.391,13.776 C85.0321093,13.3151088 84.7695564,12.7956696 84.6033333,12.2176667 C84.4371103,11.6396638 84.354,10.9955591 84.354,10.2853333 C84.354,8.59288043 84.7846624,7.31222657 85.646,6.44333333 C86.5073376,5.5744401 87.7124367,5.14 89.2613333,5.14 C90.7497852,5.14 91.8151079,5.48944095 92.4573333,6.18833333 C93.0995588,6.88722572 93.4206667,8.01110337 93.4206667,9.56 L93.4206667,10.818 L88.2413333,10.818 L88.2413333,11.0333333 C88.2413333,11.4791133 88.2885551,11.8455541 88.383,12.1326667 C88.4774449,12.4197792 88.6153324,12.6313327 88.7966667,12.7673333 C88.9780009,12.903334 89.1631102,12.9939998 89.352,13.0393333 C89.5408898,13.0846669 89.771332,13.1073333 90.0433333,13.1073333 C90.3077791,13.1073333 90.5929985,13.0733337 90.899,13.0053333 C91.2050015,12.937333 91.5147762,12.8315563 91.8283333,12.688 C92.1418905,12.5444437 92.4044434,12.3744454 92.616,12.178 L93.2846667,13.3226667 C93.0051097,13.7760023 92.5952249,14.1556651 92.055,14.4616667 C91.5147751,14.7676682 90.9953358,14.973555 90.4966667,15.0793333 C89.9979975,15.1851116 89.5220023,15.238 89.0686667,15.238 Z" id="KaminTime"></path>
        </g>
    </g>
</svg>
